<svg width="48" height="48" viewBox="0 0 48 48" fill="none" xmlns="http://www.w3.org/2000/svg">
<path fill-rule="evenodd" clip-rule="evenodd" d="M13 10C11.3431 10 10 11.3431 10 13C10 14.6569 11.3431 16 13 16H16V20H13C9.13401 20 6 16.866 6 13C6 9.13401 9.13401 6 13 6C16.866 6 20 9.13401 20 13V16H16V13C16 11.3431 14.6569 10 13 10ZM28 16H32V20H35C38.866 20 42 16.866 42 13C42 9.13401 38.866 6 35 6C31.134 6 28 9.13401 28 13V16ZM32 28V32H28V35C28 38.866 31.134 42 35 42C38.866 42 42 38.866 42 35C42 31.134 38.866 28 35 28H32ZM20 32H16V28H13C9.13401 28 6 31.134 6 35C6 38.866 9.13401 42 13 42C16.866 42 20 38.866 20 35V32ZM16 32V35C16 36.6569 14.6569 38 13 38C11.3431 38 10 36.6569 10 35C10 33.3431 11.3431 32 13 32H16ZM32 32H35C36.6569 32 38 33.3431 38 35C38 36.6569 36.6569 38 35 38C33.3431 38 32 36.6569 32 35V32ZM32 16V13C32 11.3431 33.3431 10 35 10C36.6569 10 38 11.3431 38 13C38 14.6569 36.6569 16 35 16H32Z" fill="#FFBF00" fill-opacity="0.4"/>
<path fill-rule="evenodd" clip-rule="evenodd" d="M16 16H32V32H16V16ZM20 20V28H28V20H20Z" fill="#FFBF00"/>
</svg>
