<svg width="48" height="48" viewBox="0 0 48 48" fill="none" xmlns="http://www.w3.org/2000/svg">
<path d="M6 14C6 9.58172 9.58172 6 14 6H34C38.4183 6 42 9.58172 42 14V34C42 38.4183 38.4183 42 34 42H14C9.58172 42 6 38.4183 6 34V14Z" fill="#8580FF" fill-opacity="0.4"/>
<path fill-rule="evenodd" clip-rule="evenodd" d="M20 10H22V14H20C18.8956 14 18 14.8955 18 16.0002V19C18 20.9476 17.352 22.5401 16.7365 23.6173C16.6596 23.7519 16.5826 23.8796 16.5066 24C16.5826 24.1205 16.6596 24.2481 16.7365 24.3827C17.352 25.4599 18 27.0524 18 29V32C18 33.1046 18.8955 34 20 34H22V38H20C16.6863 38 14 35.3137 14 32V29C14 27.9476 13.648 27.0401 13.2635 26.3673C13.0737 26.035 12.8853 25.7769 12.7508 25.6088C12.684 25.5253 12.632 25.4658 12.6018 25.4324L12.5762 25.4046L11.1716 24L12.5762 22.5954L12.6018 22.5676C12.632 22.5342 12.684 22.4747 12.7508 22.3912C12.8853 22.2231 13.0737 21.965 13.2635 21.6327C13.648 20.9599 14 20.0524 14 19V16.0002C14 12.6866 16.6862 10 20 10ZM28 10H26.0001V14H28C29.1045 14 30 14.8955 30 16.0002V19C30 20.9476 30.648 22.5401 31.2635 23.6173C31.3404 23.7519 31.4175 23.8796 31.4935 24C31.4175 24.1205 31.3404 24.2481 31.2635 24.3827C30.648 25.4599 30 27.0524 30 29V32C30 33.1046 29.1046 34 28 34H26.0001V38H28C31.3137 38 34 35.3137 34 32V29C34 27.9476 34.352 27.0401 34.7365 26.3673C34.9264 26.035 35.1147 25.7769 35.2492 25.6088C35.316 25.5253 35.368 25.4658 35.3983 25.4324L35.4239 25.4046L36.8284 24L35.4239 22.5954L35.3983 22.5676C35.368 22.5342 35.316 22.4747 35.2492 22.3912C35.1147 22.2231 34.9264 21.965 34.7365 21.6327C34.352 20.9599 34 20.0524 34 19V16.0002C34 12.6866 31.3138 10 28 10Z" fill="#8580FF"/>
</svg>
