<svg width="48" height="48" viewBox="0 0 48 48" fill="none" xmlns="http://www.w3.org/2000/svg">
<path d="M35.998 4C34.894 4 33.998 4.896 33.998 6V11.126L25.002 20.12C25.002 20.12 24.312 20 23.998 20C21.788 20 19.998 21.79 19.998 24C19.998 26.21 21.788 28 23.998 28C26.208 28 27.998 26.21 27.998 24C27.998 23.686 27.87 23.002 27.87 23.002L36.874 14H41.998C43.102 14 43.998 13.104 43.998 12C43.998 10.896 43.102 10 41.998 10H37.998V6C37.998 4.896 37.102 4 35.998 4Z" fill="#FFBF00"/>
<path d="M24 4C12.954 4 4 12.954 4 24C4 35.046 12.954 44 24 44C35.046 44 44 35.046 44 24C44 22.492 43.828 21.01 43.5 19.562C43.256 18.486 42.202 17.818 41.124 18.062C40.048 18.306 39.38 19.36 39.624 20.438C39.888 21.594 40 22.79 40 24C40 32.836 32.836 40 24 40C15.164 40 8 32.836 8 24C8 15.164 15.164 8 24 8C25.208 8 26.406 8.11198 27.562 8.37598C28.64 8.61998 29.694 7.95198 29.938 6.87598C30.182 5.79798 29.514 4.744 28.438 4.5C26.992 4.172 25.506 4 24 4ZM24 12C17.372 12 12 17.372 12 24C12 30.628 17.372 36 24 36C30.628 36 36 30.628 36 24C36 22.896 35.104 22 34 22C32.896 22 32 22.896 32 24C32 28.418 28.418 32 24 32C19.582 32 16 28.418 16 24C16 19.582 19.582 16 24 16C25.104 16 26 15.104 26 14C26 12.896 25.104 12 24 12Z" fill="#FFBF00" fill-opacity="0.4"/>
</svg>
