<svg width="48" height="48" viewBox="0 0 48 48" fill="none" xmlns="http://www.w3.org/2000/svg">
<path fill-rule="evenodd" clip-rule="evenodd" d="M24 14C22.8954 14 22 14.8954 22 16C22 17.1046 22.8954 18 24 18C25.1046 18 26 17.1046 26 16C26 14.8954 25.1046 14 24 14ZM18 16C18 12.6863 20.6863 10 24 10C27.3137 10 30 12.6863 30 16C30 19.3137 27.3137 22 24 22C20.6863 22 18 19.3137 18 16ZM10 32C8.89543 32 8 32.8954 8 34C8 35.1046 8.89543 36 10 36C11.1046 36 12 35.1046 12 34C12 32.8954 11.1046 32 10 32ZM4 34C4 30.6863 6.68629 28 10 28C13.3137 28 16 30.6863 16 34C16 37.3137 13.3137 40 10 40C6.68629 40 4 37.3137 4 34ZM36 34C36 32.8954 36.8954 32 38 32C39.1046 32 40 32.8954 40 34C40 35.1046 39.1046 36 38 36C36.8954 36 36 35.1046 36 34ZM38 28C34.6863 28 32 30.6863 32 34C32 37.3137 34.6863 40 38 40C41.3137 40 44 37.3137 44 34C44 30.6863 41.3137 28 38 28Z" fill="#FF7847"/>
<path fill-rule="evenodd" clip-rule="evenodd" d="M29.6586 14C29.8797 14.6256 30 15.2987 30 16C30 17.1513 29.6757 18.2268 29.1136 19.1403C32.7188 20.8409 35.339 24.2842 35.8917 28.3809C36.5476 28.1347 37.2581 28 38 28C38.6685 28 39.3114 28.1093 39.9119 28.3111C39.4824 24.2154 37.5079 20.5813 34.5828 18H36.5351C37.2267 19.1956 38.5194 20 40 20C42.2091 20 44 18.2091 44 16C44 13.7909 42.2091 12 40 12C38.5194 12 37.2267 12.8044 36.5351 14H29.6586ZM18.8864 19.1403C18.3243 18.2268 18 17.1513 18 16C18 15.2987 18.1203 14.6256 18.3414 14H11.4649C10.7733 12.8044 9.48056 12 8 12C5.79086 12 4 13.7909 4 16C4 18.2091 5.79086 20 8 20C9.48056 20 10.7733 19.1956 11.4649 18H13.4172C10.4921 20.5813 8.51765 24.2154 8.08806 28.3111C8.68857 28.1093 9.33152 28 10 28C10.7419 28 11.4524 28.1347 12.1083 28.3809C12.661 24.2842 15.2812 20.8409 18.8864 19.1403Z" fill="#FF7847" fill-opacity="0.4"/>
</svg>
