<svg width="48" height="48" viewBox="0 0 48 48" fill="none" xmlns="http://www.w3.org/2000/svg">
<path fill-rule="evenodd" clip-rule="evenodd" d="M30 10H18V14H30V10ZM30 34H18V38H30V34ZM14 18V30H10V18H14ZM38 30V18H34V30H38Z" fill="#174CBA" fill-opacity="0.6"/>
<path fill-rule="evenodd" clip-rule="evenodd" d="M9 6C7.34315 6 6 7.34315 6 9V15C6 16.6569 7.34315 18 9 18H15C16.6569 18 18 16.6569 18 15V9C18 7.34315 16.6569 6 15 6H9ZM10 14V10H14V14H10ZM33 6C31.3431 6 30 7.34315 30 9V15C30 16.6569 31.3431 18 33 18H39C40.6569 18 42 16.6569 42 15V9C42 7.34315 40.6569 6 39 6H33ZM34 14V10H38V14H34ZM30 33C30 31.3431 31.3431 30 33 30H39C40.6569 30 42 31.3431 42 33V39C42 40.6569 40.6569 42 39 42H33C31.3431 42 30 40.6569 30 39V33ZM34 34V38H38V34H34ZM9 30C7.34315 30 6 31.3431 6 33V39C6 40.6569 7.34315 42 9 42H15C16.6569 42 18 40.6569 18 39V33C18 31.3431 16.6569 30 15 30H9ZM10 38V34H14V38H10Z" fill="#174CBA"/>
</svg>
