<svg width="53" height="53" viewBox="0 0 53 53" fill="none" xmlns="http://www.w3.org/2000/svg">
<path opacity="0.3" d="M26.5 53C41.1355 53 53 41.1355 53 26.5C53 11.8645 41.1355 0 26.5 0C11.8645 0 0 11.8645 0 26.5C0 41.1355 11.8645 53 26.5 53Z" fill="white"/>
<path d="M14.793 16.8602C14.793 24.6583 14.793 32.3683 14.793 40.0783C14.7342 40.0979 14.6852 40.1175 14.6264 40.1371C14.5089 39.9999 14.3913 39.8726 14.2738 39.7354C13.5488 38.8243 12.8238 37.9328 12.1283 37.0022C11.9715 36.7866 11.854 36.4829 11.854 36.2184C11.854 30.3698 11.8638 24.531 11.8834 18.6824C11.8932 15.4691 11.9226 12.2558 11.9421 9.03265C11.9421 8.90529 11.9421 8.78773 11.9421 8.51343C12.4614 9.12082 12.8924 9.61066 13.3137 10.1201C15.9 13.1668 18.4863 16.2136 21.0824 19.2506C21.3567 19.5739 21.4645 19.8874 21.4645 20.2988C21.4743 27.2055 21.5037 34.1121 21.5233 41.0188C21.5233 41.1364 21.5233 41.2441 21.5233 41.3911C25.8142 41.3911 30.0856 41.3911 34.4353 41.3911C33.6614 40.4604 32.9168 39.5885 32.1919 38.6872C31.947 38.3835 31.702 38.2463 31.3004 38.2463C29.1843 38.2463 27.0682 38.2169 24.9423 38.1973C24.766 38.1973 24.5896 38.1973 24.3349 38.1973C24.3349 37.1001 24.3349 36.0323 24.3349 34.8763C24.8933 34.8763 25.5105 34.8763 26.1277 34.8763C28.2438 34.8665 30.3599 34.8371 32.4858 34.8469C32.7013 34.8469 32.9854 34.984 33.1323 35.1506C35.7677 38.1973 38.3932 41.2539 41.0187 44.3105C41.0677 44.3693 41.1068 44.4378 41.1558 44.4966C33.5242 44.4966 25.922 44.4966 18.261 44.4966C18.261 43.1349 18.2512 41.8319 18.261 40.5388C18.2708 39.0007 18.2904 37.4724 18.3002 35.9343C18.3198 32.1332 18.3394 28.3321 18.359 24.5212C18.3688 23.4436 18.3884 22.3659 18.3786 21.2883C18.3786 21.1119 18.3394 20.8866 18.2218 20.7495C17.1638 19.4857 16.0861 18.2415 15.0085 16.9973C14.9987 16.968 14.9497 16.9582 14.793 16.8602Z" fill="white"/>
<path d="M30.595 20.7396C33.2793 20.72 35.4444 22.8851 35.4444 25.589C35.4444 28.2341 33.3087 30.3992 30.6734 30.4285C27.9695 30.4579 25.7652 28.2733 25.7652 25.5792C25.7652 22.9047 27.9205 20.7494 30.595 20.7396Z" fill="white"/>
</svg>
