<svg width="48" height="48" viewBox="0 0 48 48" fill="none" xmlns="http://www.w3.org/2000/svg">
<path fill-rule="evenodd" clip-rule="evenodd" d="M6 14C6 9.58172 9.58172 6 14 6H34C38.4183 6 42 9.58172 42 14V34C42 38.4183 38.4183 42 34 42H14C9.58172 42 6 38.4183 6 34V14ZM14 10C11.7909 10 10 11.7909 10 14V34C10 36.2091 11.7909 38 14 38H34C36.2091 38 38 36.2091 38 34V14C38 11.7909 36.2091 10 34 10H14Z" fill="#9600FF" fill-opacity="0.4"/>
<path fill-rule="evenodd" clip-rule="evenodd" d="M18 6C18 4.89543 17.1046 4 16 4C14.8954 4 14 4.89543 14 6V12C14 15.3137 16.6863 18 20 18H28C31.3137 18 34 15.3137 34 12V6C34 4.89543 33.1046 4 32 4C30.8954 4 30 4.89543 30 6V12C30 13.1046 29.1046 14 28 14H20C18.8954 14 18 13.1046 18 12V6ZM31.4142 25.4142C32.1953 24.6332 32.1953 23.3668 31.4142 22.5858C30.6332 21.8047 29.3668 21.8047 28.5858 22.5858L22 29.1716L19.4142 26.5858C18.6332 25.8047 17.3668 25.8047 16.5858 26.5858C15.8047 27.3668 15.8047 28.6332 16.5858 29.4142L20.5858 33.4142C21.3668 34.1953 22.6332 34.1953 23.4142 33.4142L31.4142 25.4142Z" fill="#9600FF"/>
</svg>
