<svg width="48" height="48" viewBox="0 0 48 48" fill="none" xmlns="http://www.w3.org/2000/svg">
<path fill-rule="evenodd" clip-rule="evenodd" d="M26 38.7128C26.2321 38.6307 26.4603 38.5339 26.6833 38.4224L35.7889 33.8697C37.144 33.1921 38 31.807 38 30.2919V19.2361L40.8944 17.7889C41.572 17.4501 42 16.7576 42 16.0001V30.2919C42 33.3221 40.288 36.0922 37.5777 37.4474L28.4721 42.0001C25.6569 43.4078 22.3431 43.4078 19.5279 42.0001L10.4223 37.4474C7.71202 36.0922 6 33.3221 6 30.2919V16.0001C6.00003 16.7577 6.42803 17.4501 7.10557 17.7889L10 19.2361V30.2919C10 31.807 10.856 33.1921 12.2111 33.8697L21.3167 38.4224C21.5397 38.5339 21.7679 38.6307 22 38.7128V41C22 42.1046 22.8954 43 24 43C25.1046 43 26 42.1046 26 41V38.7128Z" fill="#174CBA" fill-opacity="0.4"/>
<path fill-rule="evenodd" clip-rule="evenodd" d="M21.3167 11.5706C23.0059 10.7273 24.9941 10.7273 26.6833 11.5706L35.5279 15.9861L26.6833 20.4015C24.9941 21.2448 23.0059 21.2448 21.3167 20.4015L12.4721 15.9861L21.3167 11.5706ZM28.4721 7.99843C25.6569 6.59297 22.3431 6.59297 19.5279 7.99843L7.10557 14.2C6.428 14.5383 6 15.2297 6 15.9861C6 16.7425 6.428 17.4339 7.10557 17.7722L19.5279 23.9737C20.3199 24.3691 21.1513 24.6533 22 24.8262V40.9474C22 42.0503 22.8954 42.9443 24 42.9443C25.1046 42.9443 26 42.0503 26 40.9474V24.8262C26.8487 24.6533 27.6801 24.3691 28.4721 23.9737L40.8944 17.7722C41.572 17.4339 42 16.7425 42 15.9861C42 15.2297 41.572 14.5383 40.8944 14.2L28.4721 7.99843Z" fill="#174CBA"/>
</svg>
